# xmcd
#
# Track frame offsets:
#	150
#	11887
#	27857
#	41385
#	56623
#	70996
#	83841
#	100186
#	124635
#	142472
#	155077
#	174377
#
# Disc length: 2472 seconds
#
# Revision: 0
# Processed by: cddbd v1.5.2PL0 Copyright (c) Steve Scherf et al.
# Submitted via: EasyCDDAExtractor 4.6.9.1
#
DISCID=a309a60c
DTITLE=Artistes variés - Espace émergence - Volume 1 [CD 2)
DYEAR=2010
DGENRE=Québécois
TTITLE0=Dreamin' (Chasing Brights Lights)
TTITLE1=Mercury (aka Pierre Mercure) (Les Frères Goyette)
TTITLE2=Ma vieille guitare (Bruno Rodéo)
TTITLE3=Assise dans ma tête (Michèle O.)
TTITLE4=Judicieux appât (Louis-André Bourque)
TTITLE5=Parmi (Lérang)
TTITLE6=La patate (Benoît Paradis Trio)
TTITLE7=Kotak Musik (Giri Kedaton)
TTITLE8=Le vent dans les voiles (Mélissandre)
TTITLE9=Chair à canon (Pêro)
TTITLE10=La Mère Nicolas (David de la Durantaye)
TTITLE11=No puede ser (Tempête et passion)
EXTD=
EXTT0=
EXTT1=
EXTT2=
EXTT3=
EXTT4=
EXTT5=
EXTT6=
EXTT7=
EXTT8=
EXTT9=
EXTT10=
EXTT11=
PLAYORDER=
